<svg version="1" xmlns="http://www.w3.org/2000/svg" width="760" height="760" viewBox="0 0 570.000000 570.000000"><path d="M0 285v285h570V0H0v285zm218-151.6c23.5 5.5 44.5 14.3 82.5 34.7 34.3 18.3 49.8 24.2 64.2 24.2 6.3 0 7.9-.4 12-2.9 9-5.5 14-17.8 15-36.7l.6-9.7h67.5l.7 7.6c1 9.9-.2 29.1-2.5 42.9-8.5 49.1-38.8 78.5-81.2 78.5-25.7 0-54.7-9-92.8-28.7-47.8-24.8-56.4-28.6-71.5-31.4-22.2-4.1-33.7 8.2-35.4 38.1l-.6 10.5-33.7.3-33.7.2-.7-3.7c-1-5.4.3-34.4 2-44.8 6.8-40.6 25.6-67.9 53.8-78.1 13.7-5 35-5.4 53.8-1zM271.5 330l65.2 40H406v-70l34.8.2 34.7.3.3 34.7.2 34.8h-70v70h-69.5l-55.4-30.5c-30.5-16.8-55.7-30.2-56-29.7-.3.5-10.5 14.2-22.5 30.5L180.7 440h-43c-34.2 0-42.7-.3-42-1.3.9-1.1 81.1-109.7 101.2-136.9 4.7-6.5 8.8-11.7 9-11.8.1 0 29.7 18 65.6 40z"/></svg>