<svg height="512pt" viewBox="0 -61 512 512" width="512pt" xmlns="http://www.w3.org/2000/svg"><style>path {fill:#fff000}</style><path d="m369.5 0h-113.5c-3.683594 0-7.335938.140625-10.949219.414062-3.445312.265626-6.851562.65625-10.226562 1.160157-.359375.054687-.71875.109375-1.082031.167969-3.003907.472656-5.976563 1.042968-8.917969 1.703124-2.96875.664063-5.898438 1.421876-8.792969 2.269532-1.546875.449218-3.082031.929687-4.605469 1.433594-2.308593.761718-4.59375 1.582031-6.851562 2.457031-.453125.175781-.90625.355469-1.355469.535156-1.824219.730469-3.628906 1.496094-5.414062 2.296875-2.238282 1.003906-4.449219 2.0625-6.621094 3.175781-1.242188.636719-2.472656 1.296875-3.691406 1.972657-1.488282.816406-2.957032 1.660156-4.40625 2.53125-2.65625 1.585937-5.257813 3.257812-7.796876 5.011718-1.085937.75-2.15625 1.511719-3.222656 2.289063-.917968.671875-1.824218 1.351562-2.722656 2.042969-.777344.59375-1.542969 1.195312-2.304688 1.804687-1.800781 1.445313-3.566406 2.929687-5.292968 4.457031-.976563.863282-1.941406 1.742188-2.894532 2.628906-1.1875 1.109376-2.359374 2.226563-3.507812 3.375-.019531.019532-.039062.039063-.058594.058594-1.253906 1.25-2.476562 2.535156-3.683594 3.832032-1.023437 1.105468-2.035156 2.21875-3.023437 3.355468-1.136719 1.300782-2.242187 2.628906-3.332031 3.972656-1.609375 1.988282-3.171875 4.019532-4.671875 6.09375-1.996094 2.746094-3.890625 5.570313-5.6875 8.460938-3.796875 6.105469-7.148438 12.519531-10 19.191406-.195313.460938-.382813.921875-.574219 1.382813-2.273438 5.472656-4.207031 11.117187-5.789062 16.90625-2.960938 10.828125-4.679688 22.164062-4.976563 33.847656-.03125 1.21875-.046875 2.445313-.046875 3.671875s.015625 2.449219.046875 3.671875c.332031 13.117187 2.457031 25.796875 6.117187 37.808594 1.347657 4.410156 2.898438 8.726562 4.648438 12.945312.191406.460938.378906.921875.574219 1.378907 2.851562 6.675781 6.203125 13.085937 10 19.195312 1.796875 2.890625 3.691406 5.710938 5.6875 8.460938 1.503906 2.074218 3.0625 4.105468 4.671875 6.09375 1.089844 1.34375 2.195312 2.667968 3.332031 3.972656.988281 1.132812 2 2.25 3.023437 3.351562.832032.894532 1.675782 1.78125 2.53125 2.65625.796876.816406 1.601563 1.621094 2.417969 2.417969.757813.738281 1.523438 1.46875 2.296875 2.191406.953125.890625 1.917969 1.765625 2.894532 2.628907 1.730468 1.527343 3.496093 3.015624 5.296874 4.457031.761719.609375 1.527344 1.210937 2.300782 1.804687.902344.695313 1.808594 1.375 2.726562 2.042969 1.0625.78125 2.136719 1.542969 3.222656 2.292969 2.539063 1.75 5.140626 3.421875 7.792969 5.011718 1.453125.867188 2.921875 1.714844 4.40625 2.53125 1.222657.671876 2.449219 1.332032 3.691407 1.96875 2.175781 1.117188 4.382812 2.171876 6.621093 3.179688 1.789063.800781 3.59375 1.566406 5.417969 2.296875.449219.179687.902344.355469 1.355469.53125 2.257812.878906 4.542969 1.695313 6.851562 2.460937 1.523438.5 3.058594.980469 4.605469 1.433594 2.894531.847656 5.824219 1.605469 8.789062 2.269532 2.941407.65625 5.914063 1.226562 8.921876 1.703124.359374.054688.722656.109376 1.082031.164063 3.375.507813 6.78125.898437 10.226562 1.160156 3.613281.277344 7.265625.417969 10.949219.417969 20.679688 0 37.5-16.820312 37.5-37.5s-16.820312-37.5-37.5-37.5c-11.609375 0-22.546875-2.949219-32.097656-8.132812-.269532-.144532-.527344-.304688-.792969-.453126-5.445313-3.054687-10.433594-6.824218-14.816406-11.207031-3.117188-3.113281-5.925781-6.535156-8.386719-10.207031-7.199219-10.734375-11.40625-23.632812-11.40625-37.5s4.207031-26.765625 11.40625-37.5c12.125-18.074219 32.738281-30 56.09375-30h113.5c37.21875 0 67.5 30.28125 67.5 67.5 0 18.039062-7.128906 34.4375-18.699219 46.558594 6.597657 18.261718 10.199219 37.9375 10.199219 58.441406 0 8.679688-.652344 17.207031-1.894531 25.542969 50.226562-22.058594 85.394531-72.265625 85.394531-130.542969 0-78.574219-63.925781-142.5-142.5-142.5zm0 0"/><path d="m392.335938 206.015625c-1.34375-4.410156-2.898438-8.726563-4.648438-12.941406-.632812-1.527344-1.289062-3.046875-1.972656-4.546875-.660156-1.441406-1.347656-2.871094-2.054688-4.292969-.714844-1.4375-1.449218-2.867187-2.210937-4.273437-1.234375-2.289063-2.535157-4.535157-3.886719-6.742188-2.148438-3.5-4.441406-6.898438-6.871094-10.1875-.542968-.734375-1.09375-1.464844-1.652344-2.1875-5.097656-6.636719-10.761718-12.816406-16.929687-18.457031-.304687-.28125-.613281-.558594-.921875-.832031-3.589844-3.230469-7.347656-6.28125-11.253906-9.136719-1.0625-.777344-2.136719-1.539063-3.222656-2.289063-5.070313-3.5-10.375-6.6875-15.890626-9.515625-1.167968-.597656-2.34375-1.175781-3.527343-1.742187-2.789063-1.332032-5.625-2.578125-8.507813-3.730469-.453125-.179687-.90625-.359375-1.359375-.535156-2.4375-.945313-4.902343-1.824219-7.402343-2.636719-1.164063-.378906-2.332032-.742188-3.511719-1.09375-3.246094-.964844-6.539063-1.816406-9.875-2.550781-2.574219-.5625-5.171875-1.058594-7.792969-1.484375-.679688-.109375-1.359375-.21875-2.042969-.316406-3.25-.476563-6.53125-.851563-9.851562-1.105469-3.613281-.277344-7.265625-.417969-10.949219-.417969-20.679688 0-37.5 16.820312-37.5 37.5s16.820312 37.5 37.5 37.5c5.089844 0 10.042969.585938 14.8125 1.65625 2.492188.5625 4.929688 1.257812 7.308594 2.085938.765625.265624 1.523437.546874 2.273437.835937 9.785157 3.808594 18.476563 9.820313 25.441407 17.445313.148437.160156.289062.328124.433593.492187 1.136719 1.265625 2.21875 2.578125 3.257813 3.929687.445312.582032.878906 1.171876 1.308594 1.765626.425781.59375.851562 1.183593 1.257812 1.789062 7.199219 10.730469 11.40625 23.632812 11.40625 37.5 0 37.21875-30.28125 67.5-67.5 67.5h-113.5c-37.21875 0-67.5-30.28125-67.5-67.5 0-18.042969 7.128906-34.4375 18.699219-46.5625-6.59375-18.257812-10.199219-37.933594-10.199219-58.4375 0-8.679688.652344-17.207031 1.894531-25.542969-50.226562 22.058594-85.394531 72.265625-85.394531 130.542969 0 78.574219 63.925781 142.5 142.5 142.5h113.5c3.683594 0 7.335938-.140625 10.949219-.414062 3.316406-.253907 6.601562-.632813 9.851562-1.109376.679688-.097656 1.359375-.207031 2.042969-.316406 2.621094-.421875 5.21875-.921875 7.789062-1.484375 3.335938-.734375 6.632813-1.585937 9.878907-2.550781 1.175781-.347656 2.34375-.714844 3.507812-1.09375 2.5-.8125 4.96875-1.691406 7.402344-2.636719.457031-.175781.90625-.351562 1.359375-.535156 2.882812-1.152344 5.722656-2.394531 8.507812-3.730469 1.183594-.566406 2.363282-1.144531 3.527344-1.742187 5.515625-2.828125 10.820313-6.015625 15.890625-9.515625 1.085938-.746094 2.160157-1.511719 3.222657-2.289063 3.90625-2.855469 7.664062-5.902343 11.257812-9.132812.304688-.277344.613281-.554688.917969-.832031 1.527343-1.398438 3.027343-2.828126 4.492187-4.289063.039063-.039063.078125-.074219.117188-.113281 4.40625-4.40625 8.519531-9.105469 12.320312-14.054688.558594-.726562 1.109375-1.453125 1.652344-2.1875 2.429688-3.292968 4.726562-6.691406 6.871094-10.1875 1.355468-2.210937 2.652344-4.457031 3.886718-6.742187.765626-1.410157 1.496094-2.839844 2.210938-4.277344.707031-1.417969 1.394531-2.847656 2.054688-4.292969.6875-1.5 1.339843-3.019531 1.976562-4.542968 2.269531-5.476563 4.207031-11.121094 5.789062-16.910157 2.957032-10.828125 4.675782-22.164062 4.972657-33.84375.03125-1.222656.046875-2.445312.046875-3.671875 0-1.230468-.015625-2.453125-.046875-3.675781-.328125-13.117187-2.453125-25.796875-6.113281-37.8125zm0 0"/></svg>
