<svg xmlns="http://www.w3.org/2000/svg" xmlns:xlink="http://www.w3.org/1999/xlink" version="1.1" x="0px" y="0px" viewBox="0 0 24 30" style="enable-background:new 0 0 24 24;" xml:space="preserve"><style>path {fill:#fff000}</style><path d="M18.755,15.903c-1.186,0-2.237,0.579-2.894,1.466l-7.174-4.304C8.791,12.728,8.848,12.371,8.848,12  s-0.056-0.728-0.161-1.065l7.174-4.304c0.657,0.887,1.708,1.466,2.894,1.466c1.986,0,3.603-1.616,3.603-3.603  s-1.616-3.603-3.603-3.603c-1.986,0-3.603,1.616-3.603,3.603c0,0.37,0.056,0.728,0.161,1.065L8.139,9.864  C7.482,8.976,6.431,8.397,5.245,8.397c-1.986,0-3.603,1.616-3.603,3.603s1.616,3.603,3.603,3.603c1.186,0,2.237-0.579,2.894-1.466  l7.174,4.304c-0.104,0.337-0.161,0.694-0.161,1.065c0,1.987,1.616,3.603,3.603,3.603c1.986,0,3.603-1.616,3.603-3.603  S20.741,15.903,18.755,15.903z M18.755,2.093c1.324,0,2.402,1.077,2.402,2.402s-1.077,2.402-2.402,2.402s-2.402-1.077-2.402-2.402  S17.431,2.093,18.755,2.093z M5.245,14.402c-1.324,0-2.402-1.077-2.402-2.402s1.077-2.402,2.402-2.402  c1.324,0,2.402,1.077,2.402,2.402S6.569,14.402,5.245,14.402z M18.755,21.907c-1.324,0-2.402-1.077-2.402-2.402  s1.077-2.402,2.402-2.402s2.402,1.077,2.402,2.402S20.079,21.907,18.755,21.907z"/><text x="0" y="39" fill="#000000" font-size="5px" font-weight="bold" font-family="'Helvetica Neue', Helvetica, Arial-Unicode, Arial, Sans-serif">Created by Icons Fabric</text><text x="0" y="44" fill="#000000" font-size="5px" font-weight="bold" font-family="'Helvetica Neue', Helvetica, Arial-Unicode, Arial, Sans-serif">from the Noun Project</text></svg>
