<?xml version="1.0" encoding="UTF-8" standalone="no"?>
<!DOCTYPE svg PUBLIC "-//W3C//DTD SVG 1.1//EN" "http://www.w3.org/Graphics/SVG/1.1/DTD/svg11.dtd">
<svg width="100%" height="100%" viewBox="0 0 732 99" version="1.1" xmlns="http://www.w3.org/2000/svg" xmlns:xlink="http://www.w3.org/1999/xlink" xml:space="preserve" xmlns:serif="http://www.serif.com/" style="fill-rule:evenodd;clip-rule:evenodd;stroke-linejoin:round;stroke-miterlimit:1.41421;">
    <g transform="matrix(0.463196,0,0,0.463196,5.42535,4.86958)">
        <rect x="243.852" y="82.938" width="24.532" height="28.844" style="fill:white;"/>
    </g>
    <g transform="matrix(0.463196,0,0,0.463196,5.42535,38.9589)">
        <rect x="455.674" y="50.71" width="51.46" height="19.704" style="fill:white;"/>
    </g>
    <g transform="matrix(0.463196,0,0,0.463196,5.42535,61.4461)">
        <rect x="431.141" y="21.866" width="24.532" height="28.844" style="fill:white;"/>
    </g>
    <g transform="matrix(0.463196,0,0,0.463196,5.42535,38.9589)">
        <rect x="793.244" y="50.71" width="53.666" height="19.704" style="fill:white;"/>
    </g>
    <g transform="matrix(0.463196,0,0,0.463196,5.42535,2.54489)">
        <rect x="925.597" y="85.448" width="27.614" height="28.844" style="fill:white;"/>
    </g>
    <g transform="matrix(0.463196,0,0,0.463196,5.42535,-15.5539)">
        <rect x="1165.24" y="109.608" width="32.691" height="19.597" style="fill:white;"/>
    </g>
    <g transform="matrix(0.463196,0,0,0.463196,5.42535,6.88374)">
        <rect x="1136.89" y="80.764" width="28.354" height="28.844" style="fill:white;"/>
    </g>
    <g transform="matrix(0.463196,0,0,0.463196,5.42535,-14.9392)">
        <rect x="178.232" y="107.197" width="65.62" height="23.092" style="fill:white;"/>
    </g>
    <g transform="matrix(0.463196,0,0,0.463196,5.42535,34.7141)">
        <path d="M17.165,111.232C5.722,98.528 0,83.21 0,65.279C0,47.349 5.722,31.986 17.165,19.192C28.608,6.397 44.646,0 65.28,0C85.914,0 101.952,6.397 113.395,19.192C124.838,31.986 130.56,47.349 130.56,65.279C130.56,83.21 124.838,98.528 113.395,111.232C101.952,123.937 85.914,130.289 65.28,130.289C44.646,130.289 28.608,123.937 17.165,111.232ZM37.979,32.842C31.671,41.402 28.518,52.327 28.518,65.617C28.518,78.908 31.694,89.697 38.046,97.987C44.398,106.276 53.476,110.421 65.28,110.421C77.083,110.421 86.161,106.276 92.514,97.987C98.866,89.697 102.042,78.908 102.042,65.617C102.042,52.327 98.866,41.38 92.514,32.775C86.161,24.17 77.083,19.867 65.28,19.867C53.476,19.867 44.376,24.192 37.979,32.842Z" style="fill:white;fill-rule:nonzero;"/>
    </g>
    <g transform="matrix(0.463196,0,0,0.463196,5.42535,64.6486)">
        <path d="M214.728,65.663C230.045,65.663 242.074,61.833 250.814,54.175C259.554,46.516 264.87,36.334 266.762,23.63L241.894,23.63C238.74,38.407 229.685,45.795 214.728,45.795C203.104,45.795 194.116,41.493 187.764,32.888C181.412,24.283 178.236,13.358 178.236,0.113C178.236,0 149.718,0.05 149.718,0.383C149.718,18.314 155.44,33.676 166.883,46.471C178.326,59.266 194.274,65.663 214.728,65.663Z" style="fill:white;fill-rule:nonzero;"/>
    </g>
    <g transform="matrix(0.463196,0,0,0.463196,5.42535,15.2353)">
        <rect x="149.718" y="65.145" width="28.514" height="42.053" style="fill:white;"/>
    </g>
    <g transform="matrix(0.463196,0,0,0.463196,5.42535,34.7141)">
        <path d="M287.2,64.198C287.2,46.268 292.583,31.085 303.351,18.651C314.118,6.217 329.954,0 350.857,0C389.241,0 408.614,23.246 408.974,69.74L315.717,69.74C315.897,82.084 319.029,91.95 325.11,99.338C331.192,106.727 340.045,110.421 351.668,110.421C359.598,110.421 366.243,108.574 371.604,104.88C376.965,101.186 380.366,95.824 381.808,88.796L407.217,88.796C405.415,100.059 399.806,109.79 390.39,117.99C380.975,126.189 367.977,130.289 351.398,130.289C330.584,130.289 314.681,123.847 303.688,110.962C292.696,98.077 287.2,82.489 287.2,64.198ZM316.798,52.034L381.267,52.034C380.006,30.59 369.689,19.867 350.317,19.867C331.125,19.867 319.952,30.59 316.798,52.034Z" style="fill:white;fill-rule:nonzero;"/>
    </g>
    <g transform="matrix(0.463196,0,0,0.463196,5.42535,33.6707)">
        <path d="M506.79,117.674L506.249,62.261L506.249,57.801C506.249,53.206 506.159,49.534 505.979,46.786C505.799,44.038 505.258,40.906 504.357,37.392C503.456,33.878 502.217,31.152 500.641,29.215C499.064,27.278 496.699,25.611 493.545,24.214C490.391,22.818 486.607,22.119 482.192,22.119C469.307,22.119 461.468,28.021 458.675,39.825L434.888,39.825C437.681,14.686 453.899,2.162 483.543,2.252C502.555,2.252 515.665,7.095 522.874,16.781C530.082,26.467 533.686,39.87 533.686,56.99L533.686,130.379L506.79,130.379L506.79,117.674Z" style="fill:white;fill-rule:nonzero;"/>
    </g>
    <g transform="matrix(0.463196,0,0,0.463196,5.42535,83.9334)">
        <rect x="455.674" y="2.162" width="51.46" height="19.704" style="fill:white;"/>
    </g>
    <g transform="matrix(0.463196,0,0,0.463196,5.42535,83.9334)">
        <rect x="793.244" y="2.162" width="54.384" height="19.704" style="fill:white;"/>
    </g>
    <g transform="matrix(0.463196,0,0,0.463196,5.42535,33.6707)">
        <path d="M844.361,117.674L843.82,62.261L843.82,57.801C843.82,53.206 843.73,49.534 843.55,46.786C843.37,44.038 842.829,40.906 841.928,37.392C841.027,33.878 839.788,31.152 838.211,29.215C836.634,27.278 834.269,25.611 831.116,24.214C827.962,22.818 824.178,22.119 819.763,22.119C806.878,22.119 799.039,28.021 796.246,39.825L772.458,39.825C775.252,14.686 791.47,2.162 821.114,2.252C840.126,2.252 853.236,7.095 860.444,16.781C867.652,26.467 871.257,39.87 871.257,56.99L871.257,130.379L844.361,130.379L844.361,117.674Z" style="fill:white;fill-rule:nonzero;"/>
    </g>
    <g transform="matrix(0.463196,0,0,0.463196,5.42535,61.4461)">
        <rect x="768.077" y="21.866" width="25.167" height="28.844" style="fill:white;"/>
    </g>
    <g transform="matrix(0.463196,0,0,0.463196,5.42535,33.7124)">
        <path d="M564.291,130.289L564.291,5.676L591.727,5.676L591.727,24.597C602.269,9.64 616.551,2.162 634.571,2.162C662.594,2.162 676.605,18.47 676.605,51.088L676.605,130.289L649.303,130.289L649.303,55.548C649.303,44.826 647.817,36.852 644.843,31.625C641.87,26.399 635.968,23.786 627.138,23.786C615.515,23.786 606.707,28.021 600.715,36.491C594.723,44.961 591.727,56.134 591.727,70.01L591.727,130.289L564.291,130.289Z" style="fill:white;fill-rule:nonzero;"/>
    </g>
    <g transform="matrix(0.463196,0,0,0.463196,5.42535,35.3401)">
        <path d="M902.155,126.775L902.155,2.163L929.591,2.163L929.591,126.775L902.155,126.775Z" style="fill:white;fill-rule:nonzero;"/>
    </g>
    <g transform="matrix(0.463196,0,0,0.463196,5.42535,43.2915)">
        <rect x="1197.7" y="2.163" width="27.377" height="107.446" style="fill:white;"/>
    </g>
    <g transform="matrix(0.463196,0,0,0.463196,5.42535,4.81589)">
        <path d="M1112.76,192.674L1112.76,2.162L1140.2,2.162L1140.2,192.674L1112.76,192.674Z" style="fill:white;fill-rule:nonzero;"/>
    </g>
    <g transform="matrix(0.463196,0,0,0.463196,5.42535,34.7141)">
        <path d="M1036.14,0C1051.46,0 1063.49,3.829 1072.23,11.488C1080.97,19.147 1086.29,29.328 1088.18,42.033L1063.31,42.033C1060.16,27.256 1051.1,19.867 1036.14,19.867C1024.52,19.867 1015.53,24.17 1009.18,32.775C1002.83,41.38 999.652,52.305 999.652,65.55C999.652,78.615 1002.83,89.36 1009.18,97.784C1015.53,106.209 1024.79,110.421 1036.95,110.421C1053.53,110.421 1062.86,101.636 1064.93,84.066L1089.8,84.066C1088.54,97.131 1083.76,108.101 1075.47,116.976C1067.18,125.851 1054.34,130.289 1036.95,130.289C1015.96,130.289 999.742,123.937 988.299,111.232C976.856,98.528 971.134,83.21 971.134,65.279C971.134,47.349 976.856,31.986 988.299,19.192C999.742,6.397 1015.69,0 1036.14,0Z" style="fill:white;fill-rule:nonzero;"/>
    </g>
    <g transform="matrix(0.463196,0,0,0.463196,5.42535,14.1382)">
        <path d="M1257.86,172.548L1257.86,48.274L1285.3,48.274L1285.3,172.548L1257.86,172.548ZM1257.86,27.525L1257.86,2.162L1285.3,2.162L1285.3,27.525L1257.86,27.525Z" style="fill:white;fill-rule:nonzero;"/>
    </g>
    <g transform="matrix(0.463196,0,0,0.463196,5.42535,35.8727)">
        <path d="M1307.73,1.352L1336.52,1.352L1367.87,98.189L1399.02,1.352L1427.81,1.352L1384.77,126.436L1350.98,126.436L1307.73,1.352Z" style="fill:white;fill-rule:nonzero;"/>
    </g>
    <g transform="matrix(0.463196,0,0,0.463196,5.42535,34.7141)">
        <path d="M1435.71,64.198C1435.71,46.268 1441.1,31.085 1451.86,18.651C1462.63,6.217 1478.47,0 1499.37,0C1537.75,0 1557.13,23.246 1557.49,69.74L1464.23,69.74C1464.41,82.084 1467.54,91.95 1473.62,99.338C1479.71,106.727 1488.56,110.421 1500.18,110.421C1508.11,110.421 1514.76,108.574 1520.12,104.88C1525.48,101.186 1528.88,95.824 1530.32,88.796L1555.73,88.796C1553.93,100.059 1548.32,109.79 1538.9,117.99C1529.49,126.189 1516.49,130.289 1499.91,130.289C1479.1,130.289 1463.19,123.847 1452.2,110.962C1441.21,98.077 1435.71,82.489 1435.71,64.198ZM1465.31,52.034L1529.78,52.034C1528.52,30.59 1518.2,19.867 1498.83,19.867C1479.64,19.867 1468.47,30.59 1465.31,52.034Z" style="fill:white;fill-rule:nonzero;"/>
    </g>
</svg>
