<svg id="Layer_1" data-name="Layer 1" xmlns="http://www.w3.org/2000/svg" viewBox="0 0 800 266"><defs><style>.cls-1{fill:#12120d;}.cls-2{fill:#221f13;}</style></defs><title>Artboard 1</title><path class="cls-1" d="M300.74,211.74c-2.94,1.92-4.74,3.72-9.72,3.72-5.71,0-10.87-3.42-10.87-10,0-6.77,5.29-9.11,11.11-10l4.2-.6c2.64-.36,4.8-.6,4.8-2.57,0-2.58-3.3-2.89-4.74-2.89-3.24,0-5.46,1.2-5.46,3.9h-8.17c.54-10.32,10.39-10.74,13.27-10.74,8.46,0,14.11,2.46,14.11,11.7v13.45c0,3.18.24,5.22,1,6.61l.18.23h-9.31Zm-.24-12.07a20.38,20.38,0,0,1-2.16.73c-2.46.66-9.24.71-9.24,4.74,0,2.58,2.34,3.36,4.14,3.36a8.41,8.41,0,0,0,7.26-4Z"/><path class="cls-1" d="M358.11,201.6c.54,3.83,2.64,6.66,6.72,6.66a5.94,5.94,0,0,0,5.82-3.31l8.89.61c-2.22,6.66-8.1,9.9-15,9.9-9.84,0-15.73-6.9-15.73-16.45,0-9.29,6.19-16.44,15.73-16.44,10.39,0,15.31,7.91,15.31,17.52v1.51Zm12.48-6.73a5.63,5.63,0,0,0-5.76-5.34c-3.78,0-5.7,1.81-6.66,5.34Z"/><path class="cls-1" d="M420.56,214.38V198.05c0-3.36-.3-7.43-4.5-7.43-4.63,0-4.81,3.95-4.81,7.43v16.33h-8.88V196.79c0-2.63-.66-6.17-4.56-6.17-4.5,0-4.93,4.25-4.93,7.2v16.56h-8.76v-31.1h8.76v4.15c1.86-3.48,4.69-4.86,8.59-4.86a8.39,8.39,0,0,1,8.28,5.34,10.6,10.6,0,0,1,9.31-5.28,11.59,11.59,0,0,1,7,2.22c3.31,2.7,3.37,6,3.37,9.9v19.63Z"/><path class="cls-2" d="M462.14,182.57,446.23,226H437l4.67-12.26-11.44-31.2h9.74l6.3,19.63,6.23-19.63Z"/><path class="cls-2" d="M40.11,40.63H74.37V50.8H63.29V86.44H51.06V50.8h-11Z"/><path class="cls-2" d="M84.29,104.74h21c7.33,0,12.41,4.86,12.41,11.92,0,5.14-2.61,8.85-7.62,10.77,6,1.58,9.05,5.35,9.06,11a11.39,11.39,0,0,1-3.63,8.64c-2.47,2.47-5.08,3.43-9.26,3.43h-22Zm11.52,18.52h5.48a5.08,5.08,0,0,0,0-10.15H95.8Zm0,18.85H101c3.77,0,5.89-1.92,5.9-5.22s-2.2-5.27-5.9-5.26H95.8Z"/><path class="cls-2" d="M135.15,168h14.79l15.28,46.53h-13.4l-2-7.11H134.24l-1.81,7.11H119.66Zm1.6,30.56h10.68l-5.37-20Z"/><path class="cls-2" d="M148.92,41.18h2.47c7.5,0,12.59,5.16,12.59,12.93,0,5.08-1.18,8.18-4.06,10.44-2.4,1.93-5.43,2.9-9.42,2.9-4.33,0-7.08-.9-12.86-4.06-3.3-1.85-6.45-3.65-9.42-5.57L126.85,57V67.45h-9.42V40.63l20.15,11.14,4,2.34a18.27,18.27,0,0,0,8.73,2.82c2.48,0,3.85-1,3.85-2.75,0-2-1.1-2.83-3.64-2.83h-1.58Z"/><path class="cls-2" d="M77.36,195.78l8.87,18.78H40V204.12H70.93l-3.61-8.34Z"/><path class="cls-2" d="M227,48.77v37h-9.07v-37H206.1V40.65h32.36v8.12Z"/><path class="cls-2" d="M249,40.65v17c3.18-2.77,5.75-3.86,9.41-3.86,6.43,0,10.16,3.79,10.16,10.29V85.8h-9.14V66.24q0-5.68-4.68-5.69c-3.45,0-5.75,2.78-5.75,7V85.8h-8.73V40.65Z"/><path class="cls-2" d="M301.37,54.46,285.46,97.92h-9.27l4.67-12.25L269.42,54.46h9.74l6.3,19.63,6.23-19.63Z"/><path class="cls-2" d="M328.81,64.27h-8.53c-.2-3.45-1.62-4.73-5.08-4.73-3,0-4.8,1.15-4.8,3,0,1.42.75,2.17,2.71,2.71L319,66.91c6.44,1.77,7.58,2.37,9.08,4.88a9.08,9.08,0,0,1,1.21,4.67c0,6.43-5.34,10.36-14.14,10.36-6.7,0-10.56-1.7-12.8-5.69A8.88,8.88,0,0,1,301,75.72h8.87v.06c0,3.39,1.49,4.61,5.48,4.61,3.32,0,4.81-1,4.81-3.25,0-1.76-.68-2.44-2.91-3l-6.09-1.56c-6.24-1.55-9.14-4.46-9.14-9,0-6.23,5-10.09,13.19-10.09C323.67,53.44,328.07,57,328.81,64.27Z"/><path class="cls-2" d="M359.17,64.27h-8.54c-.2-3.45-1.62-4.73-5.07-4.73-3,0-4.81,1.15-4.81,3,0,1.42.75,2.17,2.71,2.71l5.89,1.62c6.43,1.77,7.58,2.37,9.07,4.88a9.09,9.09,0,0,1,1.22,4.67c0,6.43-5.35,10.36-14.15,10.36-6.7,0-10.56-1.7-12.79-5.69a8.81,8.81,0,0,1-1.36-5.41h8.87v.06c0,3.39,1.49,4.61,5.48,4.61,3.32,0,4.81-1,4.81-3.25,0-1.76-.68-2.44-2.91-3l-6.09-1.56c-6.23-1.55-9.14-4.46-9.14-9,0-6.23,5-10.09,13.2-10.09C354,53.44,358.42,57,359.17,64.27Z"/><path class="cls-2" d="M370.65,72.67c.14,4.6,2.51,7.11,6.77,7.11,2.84,0,4.4-1.09,5.62-3.86l8.87,1.15c-2.44,6.5-7.31,9.75-14.42,9.75-9.68,0-15.78-6.37-15.78-16.52s6.5-17.2,15.91-17.2c6.91,0,12.52,4.27,14,10.7.82,3.25.82,3.65.95,8.87Zm-.07-6.09h12.93a6.17,6.17,0,0,0-6.43-6.37A6.27,6.27,0,0,0,370.58,66.58Z"/><path class="cls-2" d="M396.19,54.46h8.06v3.25c3.17-3.11,5.62-4.27,9.33-4.27,6.71,0,10.91,4.54,10.91,11.78V85.8h-9.14V66.71c0-4-1.77-6.16-5-6.16s-5.42,2.51-5.42,6.84V85.8h-8.73Z"/><path class="cls-2" d="M447.52,65.29v8.06H429.38V65.29Z"/><path class="cls-2" d="M453,40.65h18.28c7.51,0,12.72,4.81,12.72,11.71a10.11,10.11,0,0,1-6.16,9.75c5.22,1.69,7.45,4.87,7.45,10.49,0,8.19-5.69,13.2-15,13.2H453Zm8.73,18.55h7.52c3.25,0,5.28-2.17,5.28-5.55s-2-5.55-5.49-5.55h-7.31Zm0,18.88h7.85c4.2,0,6.3-2,6.3-5.75s-2.3-6.09-6.43-6.09h-7.72Z"/><path class="cls-2" d="M520.25,69.55c0,10.7-6.23,17.27-16.25,17.27-9.54,0-15.71-6.57-15.71-16.66s6.37-16.72,16-16.72S520.25,59.67,520.25,69.55Zm-8.74.75c0-5.55-2.77-9.07-7.1-9.07s-7,3.52-7,9.14,2.57,9.07,7,9.07S511.51,75.85,511.51,70.3Z"/><path class="cls-2" d="M523.92,54.46H533v5.41c2.37-4.12,4.87-5.88,8.6-5.88.27,0,.68.06,1.15.06v9.34c-.81-.06-1.22-.06-1.56-.06-5.28,0-8.19,3-8.19,8.46v14h-9.07Z"/><path class="cls-2" d="M544.66,54.46h8.06v3.25c3.17-3.11,5.62-4.27,9.34-4.27,6.7,0,10.9,4.54,10.9,11.78V85.8h-9.14V66.71c0-4-1.76-6.16-5-6.16s-5.42,2.51-5.42,6.84V85.8h-8.73Z"/><path class="cls-2" d="M585,72.67c.13,4.6,2.5,7.11,6.77,7.11,2.84,0,4.4-1.09,5.62-3.86l8.86,1.15c-2.43,6.5-7.31,9.75-14.41,9.75-9.68,0-15.78-6.37-15.78-16.52s6.5-17.2,15.91-17.2c6.91,0,12.52,4.27,14,10.7.82,3.25.82,3.65,1,8.87ZM585,66.58h12.93a6.18,6.18,0,0,0-6.43-6.37A6.26,6.26,0,0,0,585,66.58Z"/><path class="cls-2" d="M610.42,54.46h8.39v3.79c2.57-3.32,5.28-4.81,9-4.81a9,9,0,0,1,8.26,4.81c2.57-3.32,5.35-4.81,9.21-4.81,6.43,0,9.88,3.86,9.88,10.9V85.8h-9.07V66.24c0-3.52-1.42-5.35-4.26-5.35s-4.47,2.1-4.47,5.21V85.8h-9.14V66.24c0-3.45-1.49-5.35-4.2-5.35-3,0-4.54,2.1-4.54,6v19h-9.06Z"/><path class="cls-2" d="M670,45v.27a5,5,0,0,1-5.15,5.22,5.25,5.25,0,1,1,0-10.5A5,5,0,0,1,670,45Zm-.68,9.48V85.8h-8.73V54.46Z"/><path class="cls-2" d="M700.6,64.27h-8.53c-.2-3.45-1.62-4.73-5.07-4.73-3,0-4.81,1.15-4.81,3,0,1.42.74,2.17,2.71,2.71l5.89,1.62c6.43,1.77,7.58,2.37,9.07,4.88a9.09,9.09,0,0,1,1.22,4.67c0,6.43-5.35,10.36-14.15,10.36-6.7,0-10.56-1.7-12.79-5.69a8.81,8.81,0,0,1-1.36-5.41h8.87v.06c0,3.39,1.49,4.61,5.48,4.61,3.32,0,4.81-1,4.81-3.25,0-1.76-.68-2.44-2.91-3l-6.1-1.56c-6.22-1.55-9.13-4.46-9.13-9,0-6.23,5-10.09,13.2-10.09C695.46,53.44,699.86,57,700.6,64.27Z"/><path class="cls-2" d="M728.45,54.46v6.77L714.31,79h14.82V85.8H702.87V79.57l14.82-18.34H703.54V54.46Z"/><path class="cls-2" d="M740.43,64.27h-8.52c.33-6.9,5.48-10.83,14.28-10.83,4,0,7,.75,9.34,2.24,2.64,1.69,3.65,3.86,3.65,7.85V78.15c0,4.61.07,5.62.82,7.65h-9.28V82.49c-3.45,2.77-5.82,3.65-9.61,3.65-6.36,0-10.22-3.45-10.22-9.27a8.55,8.55,0,0,1,5.75-8.4c3-1,6.71-1.49,13.34-1.62l.74-.07V64.21c0-2.91-1.55-4.34-4.67-4.34C742.74,59.87,740.64,61.5,740.43,64.27Zm10.29,8-4.33.14c-4.6.27-6.43,1.35-6.43,3.92,0,2.17,1.69,3.46,4.54,3.46,4.06,0,6.22-2.24,6.22-6.57Z"/><path class="cls-2" d="M218.55,140.6l-2.91,9.74H206.1l15.16-45.82H231l15.43,45.82H236.9l-3-9.74Zm2.23-7.45h11l-5.68-17.87Z"/><path class="cls-2" d="M248.76,119h9.08v5.42c2.36-4.13,4.87-5.89,8.59-5.89.27,0,.68.07,1.15.07v9.34c-.81-.07-1.22-.07-1.55-.07-5.29,0-8.19,3-8.19,8.46v14h-9.08Z"/><path class="cls-2" d="M283,125.77V140.6c0,1.76.54,2.37,2.17,2.37H288v7.37h-6.7c-5.15,0-7.45-2.3-7.45-7.37v-17.2h-4.33V119h4.33v-9.07H283V119h5v6.77Z"/><path class="cls-2" d="M336.72,134.71l9.47,1C344.44,145,336.38,151,326,151c-12.66,0-20.72-9.07-20.72-23.35s8.67-23.83,22-23.83c10.9,0,17.47,5.76,18.95,16.79l-8.93.81c-.88-6.23-4.67-9.81-10.49-9.81-7.45,0-12,6.09-12,15.9,0,10,4.06,15.44,11.71,15.44C332.19,143,335.5,140.26,336.72,134.71Z"/><path class="cls-2" d="M380.25,134.1c0,10.7-6.22,17.26-16.24,17.26-9.55,0-15.71-6.56-15.71-16.65S354.67,118,364.35,118,380.25,124.22,380.25,134.1Zm-8.73.74c0-5.55-2.77-9.07-7.1-9.07s-7,3.52-7,9.14,2.57,9.07,7,9.07S371.52,140.39,371.52,134.84Z"/><path class="cls-2" d="M384.06,119h8.05v3.25c3.19-3.11,5.62-4.26,9.34-4.26,6.71,0,10.9,4.53,10.9,11.78v20.57h-9.13V131.26c0-4-1.77-6.16-5-6.16s-5.41,2.5-5.41,6.83v18.41h-8.73Z"/><path class="cls-2" d="M428,125.77V140.6c0,1.76.54,2.37,2.16,2.37H433v7.37h-6.7c-5.15,0-7.45-2.3-7.45-7.37v-17.2h-4.34V119h4.34v-9.07H428V119h5v6.77Z"/><path class="cls-2" d="M443.58,137.21c.14,4.61,2.51,7.11,6.77,7.11,2.85,0,4.4-1.08,5.62-3.86l8.87,1.16c-2.44,6.5-7.31,9.74-14.42,9.74-9.68,0-15.77-6.36-15.77-16.52s6.5-17.19,15.91-17.19c6.9,0,12.52,4.27,14,10.7.81,3.25.81,3.65.94,8.86Zm-.06-6.09h12.93a6.17,6.17,0,0,0-6.44-6.36A6.25,6.25,0,0,0,443.52,131.12Z"/><path class="cls-2" d="M469.12,119h8.4v3.79c2.57-3.31,5.28-4.8,9-4.8a9,9,0,0,1,8.26,4.8c2.57-3.31,5.34-4.8,9.21-4.8,6.42,0,9.88,3.86,9.88,10.9v21.45H504.8V130.78c0-3.52-1.43-5.34-4.27-5.34s-4.46,2.09-4.46,5.21v19.69h-9.14V130.78c0-3.45-1.49-5.34-4.2-5.34-3,0-4.53,2.09-4.53,5.95v19h-9.08Z"/><path class="cls-2" d="M519,119h8.4v3.59c3.58-3.32,6.36-4.6,10.29-4.6,7.85,0,12.93,6.36,12.93,16.11,0,10-5.35,16.58-13.41,16.58-3.52,0-5.75-1-9.13-4.19v16H519Zm22.54,15.1c0-5.35-2.63-8.66-6.83-8.66s-7.31,3.52-7.31,8.73c0,5.48,2.84,9.13,7.1,9.13S541.49,139.65,541.49,134.1Z"/><path class="cls-2" d="M584.9,134.1c0,10.7-6.23,17.26-16.24,17.26-9.55,0-15.71-6.56-15.71-16.65S559.32,118,569,118,584.9,124.22,584.9,134.1Zm-8.73.74c0-5.55-2.77-9.07-7.11-9.07s-7,3.52-7,9.14,2.57,9.07,7,9.07S576.17,140.39,576.17,134.84Z"/><path class="cls-2" d="M588.58,119h9.07v5.42c2.37-4.13,4.87-5.89,8.59-5.89.27,0,.68.07,1.15.07v9.34a15.51,15.51,0,0,0-1.55-.07c-5.28,0-8.19,3-8.19,8.46v14h-9.07Z"/><path class="cls-2" d="M617.55,128.82H609c.34-6.9,5.48-10.83,14.28-10.83,4,0,7,.74,9.35,2.23,2.64,1.7,3.65,3.86,3.65,7.86V142.7c0,4.6.07,5.62.82,7.64h-9.28V147c-3.45,2.77-5.82,3.65-9.61,3.65-6.37,0-10.22-3.45-10.22-9.27a8.56,8.56,0,0,1,5.75-8.4c3-1,6.7-1.48,13.33-1.62l.75-.06v-2.58c0-2.91-1.56-4.33-4.67-4.33C619.85,124.42,617.75,126,617.55,128.82Zm10.29,8-4.33.13c-4.61.27-6.43,1.36-6.43,3.93,0,2.17,1.69,3.45,4.53,3.45,4.06,0,6.23-2.23,6.23-6.57Z"/><path class="cls-2" d="M641.46,119h9.07v5.42c2.37-4.13,4.87-5.89,8.59-5.89.27,0,.68.07,1.16.07v9.34c-.82-.07-1.22-.07-1.56-.07-5.28,0-8.19,3-8.19,8.46v14h-9.07Z"/><path class="cls-2" d="M693.05,119l-15.91,43.46h-9.27l4.67-12.25L661.1,119h9.75l6.29,19.63L683.37,119Z"/><path class="cls-2" d="M218.55,205.15l-2.91,9.74H206.1l15.16-45.82H231l15.43,45.82H236.9l-3-9.74Zm2.23-7.45h11l-5.68-17.87Z"/><path class="cls-1" d="M277.55,203c-1.62,8.58-7.08,12.42-14.7,12.42-9.91,0-15.37-6.79-15.37-16.32,0-9.73,5.88-16.57,15.91-16.57,6.54,0,13.44,4,13.86,11.7l-8.52.36c-.55-3.06-2.4-4.8-5.53-4.8-5,0-6.54,4.56-6.54,8.88S257.86,208,263,208a5.72,5.72,0,0,0,6-5.34Z"/><path class="cls-1" d="M335.76,214.56v-3c-1.8,2.82-5,3.79-8.23,3.79-8.82,0-13.27-8.11-13.27-16,0-8.47,4.27-16.63,13.69-16.63a11.39,11.39,0,0,1,7.45,2.82V172.18h8.94v42.38ZM329.51,190c-4.74,0-6.24,5-6.24,9,0,4.26,1.26,9.12,6.36,9.12s6.07-4.74,6.07-8.83S334.68,190,329.51,190Z"/></svg>